<svg width="3000" height="3000" viewBox="0 0 3000 3000" fill="none" xmlns="http://www.w3.org/2000/svg">
<g clip-path="url(#clip0_66_2)">
<rect width="3000" height="3000" fill="#120221"/>
<path opacity="0.1" d="M0 0H3000V930L2356.4 1140.41C2109.18 1221.23 1919.67 1421.68 1852.83 1673.04L1747.4 2069.55C1679.97 2323.17 1320.03 2323.17 1252.6 2069.55L1147.17 1673.04C1080.33 1421.68 890.819 1221.23 643.603 1140.41L0 930V0Z" fill="#7E22CE" fill-opacity="0.6"/>
<path d="M2372.91 1134.2C2116.26 1213.27 1921.08 1422.95 1860.57 1684.61V1684.61C1851.95 1721.89 1889.03 1753.35 1924.41 1738.77L2223.46 1615.51C2431.78 1529.65 2581.21 1342.57 2618.9 1120.42V1120.42C2623.99 1090.42 2595.67 1065.58 2566.58 1074.54L2372.91 1134.2Z" fill="#7E22CE"/>
<path d="M627.087 1135.65C883.742 1214.72 1078.92 1424.4 1139.43 1686.05V1686.05C1148.05 1723.34 1110.97 1754.79 1075.59 1740.21L776.541 1616.96C568.22 1531.1 418.792 1344.02 381.1 1121.87V1121.87C376.009 1091.86 404.331 1067.02 433.416 1075.98L627.087 1135.65Z" fill="#7E22CE"/>
</g>
<defs>
<clipPath id="clip0_66_2">
<rect width="3000" height="3000" fill="white"/>
</clipPath>
</defs>
</svg>
